<svg xmlns="http://www.w3.org/2000/svg" viewBox="0 0 138.22 165.87"><defs><style>.cls-1{fill:#323131;}</style></defs><title>Asset 8</title><g id="Layer_2" data-name="Layer 2"><g id="Layer_1-2" data-name="Layer 1"><path class="cls-1" d="M138.22,58.81V68.3H120.68c.14-1.54.26-3.1.26-4.71s-.12-3.21-.24-4.77h17.52ZM64.63,13.52V0h9.48V13.57c-1.67-.15-3.34-.24-5-.24C67.6,13.33,66.12,13.4,64.63,13.52ZM102.79,24.2l10.85-12,7,6.34L109.6,30.77A38.84,38.84,0,0,0,102.79,24.2ZM28.58,30.77,17.5,18.49l7-6.34,10.85,12A39.08,39.08,0,0,0,28.58,30.77Zm-11,37.52H0V58.81H17.52c-.12,1.56-.24,3.14-.24,4.78S17.4,66.75,17.54,68.3Zm65.39,63H55.29a3.46,3.46,0,0,0,0,6.91H82.93a3.46,3.46,0,0,0,0-6.91Zm0,13.82H55.29a3.46,3.46,0,0,0,0,6.91H82.93a3.46,3.46,0,0,0,0-6.91ZM84.66,159H53.56l8.21,5.4A6.44,6.44,0,0,0,66,165.87h6.19a6.45,6.45,0,0,0,4.25-1.51Zm25.92-95.37c0,24.67-22.21,41.35-22.21,60.81H74.62c0-12.84,6-23.42,11.89-33.64C91.77,81.61,96.75,73,96.75,63.59c0-17.91-14.34-26.07-27.66-26.07S41.47,45.68,41.47,63.59c0,9.36,5,18,10.24,27.17C57.59,101,63.63,111.56,63.6,124.4H49.86c0-19.46-22.21-36.14-22.21-60.81,0-25.73,20.72-39.89,41.45-39.89S110.58,37.87,110.58,63.59Z"/></g></g></svg>