<svg xmlns="http://www.w3.org/2000/svg" viewBox="0 0 127.39 169.52"><defs><style>.cls-1{fill:#323131;stroke:#323131;stroke-miterlimit:10;}</style></defs><title>Asset 9</title><g id="Layer_2" data-name="Layer 2"><g id="Layer_1-2" data-name="Layer 1"><path class="cls-1" d="M125.2,144.43C108.75,118.71,86.05,95.57,84.87,63.7H70.72c1.21,36.6,24.66,60,41.8,86.76a3.11,3.11,0,0,1-2.65,4.52H101L67.75,105.83H43c6.13-11.69,13-24,13.59-42.13H42.52c-1.19,31.9-24,55.22-40.33,80.74A17.16,17.16,0,0,0,17.51,169h92.36a17.16,17.16,0,0,0,15.33-24.59ZM91.78,35.61a14,14,0,1,1-14-14A14,14,0,0,1,91.78,35.61ZM56.67,25.08A10.53,10.53,0,1,1,46.14,14.54,10.53,10.53,0,0,1,56.67,25.08Zm0,24.58a7,7,0,1,1-7-7A7,7,0,0,1,56.67,49.65ZM77.74,7.52a7,7,0,1,1-7-7A7,7,0,0,1,77.74,7.52Z"/></g></g></svg>